# xmcd CD database file
#
# Track frame offsets:
#	150
#	19950
#	43665
#	68426
#	92265
#	115232
#	130468
#	159576
#	178728
#
# Disc length: 2618 seconds
#
# Revision: 0
# Processed by: cddbd v1.5.2PL0 Copyright (c) Steve Scherf et al.
# Submitted via: CDex 1.70beta2
#
DISCID=700a3809
DTITLE=SADO - Holzwege
DYEAR=2008
DGENRE=Jazz
TTITLE0=Engasa Leappirt
TTITLE1=Michelle
TTITLE2=Aristotele's Tantalium Condenser
TTITLE3=Kilimoonjingo
TTITLE4=Pavento Sprobabile
TTITLE5=Prajna Paramita's Formula
TTITLE6=Romanza n°1 per Trombone Preperato
TTITLE7=Quattro Terzi
TTITLE8=One Note Samba
EXTD=YEAR: 2008
EXTT0=
EXTT1=
EXTT2=
EXTT3=
EXTT4=
EXTT5=
EXTT6=
EXTT7=
EXTT8=
PLAYORDER=
